<svg viewBox="0 0 159.58646438000002 147.65378481012658" xml:space="preserve" xmlns="http://www.w3.org/2000/svg" style="max-height: 500px" width="159.58646438000002" height="147.65378481012658"><path transform="matrix(1.33333 0 0 -1.33333 -69.179 598.761)" style="fill:#918f90;fill-opacity:1;fill-rule:nonzero;stroke:none" d="M157.242 419.828h-9.568v29.243h9.568z"/><path transform="matrix(1.33333 0 0 -1.33333 -69.179 598.761)" style="fill:#918f90;fill-opacity:1;fill-rule:nonzero;stroke:none" d="M170.838 439.503h-23.164v9.567h23.164zM170.838 419.828h-23.164v9.567h23.164z"/><path transform="matrix(1.33333 0 0 -1.33333 -69.179 598.761)" style="fill:#706d6e;fill-opacity:1;fill-rule:nonzero;stroke:none" d="M147.673 439.503h9.569v9.567h-9.569z"/><path transform="matrix(1.33333 0 0 -1.33333 -69.179 598.761)" style="fill:#918f90;fill-opacity:1;fill-rule:nonzero;stroke:none" d="M157.197 338.68h-9.567v29.322h9.567zM170.96 358.434h-9.567v20.641h9.567zM116.601 398.557h-9.568v29.627h9.568z"/><path transform="matrix(1.33333 0 0 -1.33333 -69.179 598.761)" style="fill:#ed1c24;fill-opacity:1;fill-rule:nonzero;stroke:none" d="M126.616 338.68h9.567v40.723h-9.567zM136.184 379.403h22.9v9.567h-22.9zM103.713 379.403h22.903v9.567h-22.903zM136.184 411.63h-9.567v-22.66h9.567z"/><path transform="matrix(1.33333 0 0 -1.33333 -69.179 598.761)" style="fill:#918f90;fill-opacity:1;fill-rule:nonzero;stroke:none" d="M51.884 398.557h31.683v9.568H51.884ZM73.941 375.696h9.567v13.687h-9.567zM147.612 398.572h23.227v9.567h-23.227zM170.955 358.434h-23.362v9.568h23.362zM62.044 427.046c0 6.307 5.113 11.42 11.422 11.42 6.306 0 11.421-5.113 11.421-11.42 0-6.307-5.115-11.424-11.42-11.424-6.31 0-11.423 5.117-11.423 11.424M147.687 348.248v-.057h-.07v-9.455h.07v-.055h23.273v9.567zM93.993 408.125v-9.568h22.517v9.568zM94.081 428.184v-9.567h22.52v9.567z"/><path transform="matrix(1.33333 0 0 -1.33333 -69.179 598.761)" style="fill:#706d6e;fill-opacity:1;fill-rule:nonzero;stroke:none" d="M107.032 418.616h9.568v9.568h-9.568zM147.673 419.828h9.569v9.567h-9.569zM147.63 358.434h9.567v9.568h-9.567zM147.63 338.68h9.567v9.567h-9.567zM107.032 398.572h9.568v9.567h-9.568z"/><path transform="matrix(1.33333 0 0 -1.33333 -69.179 598.761)" style="fill:#231f20;fill-opacity:1;fill-rule:nonzero;stroke:none" d="M241.623 422.826v-4.14h14.513v-10.485h-16.13v-18.764h20.384v4.14h-16.134v10.483h16.134v18.766zM280.428 376.633v-4.14h14.805v-10.487h-14.801v-18.763h18.822v4.141h-14.577v10.484l14.81-.002v18.767zM210.314 413.926a5.787 5.787 0 0 0 5.78 5.78 5.787 5.787 0 0 0 5.783-5.78 5.787 5.787 0 0 0-5.782-5.782 5.787 5.787 0 0 0-5.781 5.782m5.78-9.925c5.485 0 9.929 4.441 9.929 9.925 0 5.48-4.444 9.926-9.928 9.926-5.484 0-9.925-4.446-9.927-9.926a9.925 9.925 0 0 1 9.927-9.925M268.531 389.437h4.25v18.875h-4.25zM344.194 403.977h4.249v18.88h-18.987v-4.14h14.738zM197.027 392.916v-4.142h16.943V371.43h4.25v17.345h16.946v4.142zM376.028 418.712a5.518 5.518 0 0 0 5.494-5.51 5.519 5.519 0 0 0-5.512-5.512 5.519 5.519 0 0 0-5.51 5.512 5.519 5.519 0 0 0 5.493 5.51zm2.11-25.838v10.917c4.307.97 7.526 4.812 7.526 9.411a9.59 9.59 0 0 1-1.735 5.51h8.625v4.144h-14.416v14.85h-4.253v-14.85H359.47v-4.144h8.622a9.59 9.59 0 0 1-1.736-5.51c0-4.6 3.223-8.443 7.529-9.412v-10.916h-16.941v-4.14h38.135v4.14zM299.311 392.916h-18.879v-4.247h18.879zM396.583 404.001h4.251v18.875h-4.251zM338.376 405.107h-4.146V392.98h-10.673v12.127h-4.145V392.98h-15.164v-4.247h48.863v4.247h-14.735zM299.254 404.002v4.14h-14.516v10.483h14.516v4.144h-18.767v-18.767zM322.738 369.765l-3.016 6.777h-1.408l1.454-3.285-1.548-3.492-3.02 6.777h-1.404l4.42-9.943 2.259 5.071 2.263-5.07 4.424 9.942h-1.406zM334.409 368.779c-1.91 0-3.46 1.469-3.46 3.273 0 1.822 1.55 3.3 3.46 3.3 1.89 0 3.487-1.51 3.487-3.3 0-1.804-1.565-3.273-3.487-3.273m0 7.854c-2.628 0-4.762-2.053-4.762-4.581 0-2.51 2.134-4.553 4.762-4.553 2.64 0 4.789 2.044 4.789 4.553 0 2.528-2.148 4.58-4.79 4.58M347.624 368.779c-1.907 0-3.462 1.469-3.462 3.273 0 1.822 1.555 3.3 3.462 3.3 1.888 0 3.483-1.51 3.483-3.3 0-1.804-1.564-3.273-3.483-3.273m0 7.854c-2.63 0-4.766-2.053-4.766-4.581 0-2.51 2.136-4.553 4.766-4.553 2.642 0 4.784 2.044 4.784 4.553 0 2.528-2.142 4.58-4.784 4.58M357.838 375.306h.825c.91 0 1.677-.584 1.677-1.274 0-.41-.166-1.367-1.686-1.367h-.816zm2.2-3.659c1.016.386 1.607 1.25 1.607 2.385 0 1.731-1.713 2.51-2.932 2.51h-2.178v-8.955h1.303v3.843h.89l1.881-3.843h1.414zM365.793 367.587h1.303v8.955h-1.303zM373.362 368.824h-.596v6.482h.596c2.18 0 3.705-1.333 3.705-3.242 0-1.907-1.524-3.24-3.705-3.24m5.006 3.24c0 2.596-2.011 4.479-4.786 4.479h-2.117v-8.955h1.69c3.6 0 5.213 2.25 5.213 4.476M383.807 376.543h-1.302v-8.955h5.994v1.236h-4.692zM394.022 368.824v2.652h4.047v1.238h-4.047v2.592h4.518v1.237h-5.824v-8.955h5.993v1.236zM320.748 355.431a3.098 3.098 0 0 0-1.437-.35c-1.658 0-3.006 1.283-3.006 2.855 0 1.583 1.348 2.874 3.006 2.874.493 0 .997-.127 1.452-.36l.141-.076.564.596-.24.135a3.99 3.99 0 0 1-1.917.485c-2.102 0-3.807-1.639-3.807-3.654 0-2.006 1.705-3.635 3.807-3.635.678 0 1.341.17 1.922.494l.261.144-.609.562zM335.422 358.341h-3.86v3.173h-.8v-7.14h.8v3.222h3.86v-3.222h.797v7.14h-.797zM350.741 356.783c0-1.075-.663-1.741-1.729-1.741-1.065 0-1.723.666-1.723 1.74v4.733h-.797v-4.76c0-1.491.988-2.453 2.52-2.453 1.535 0 2.525.962 2.525 2.454v4.759h-.796zM362.582 360.771h.822c.83 0 1.527-.55 1.527-1.197 0-.381-.148-1.272-1.535-1.272h-.814zm3.152-1.197c0 1.337-1.342 1.94-2.29 1.94h-1.666v-7.139h.804v3.184h.963l1.557-3.184h.857l-1.612 3.306c.883.268 1.387.947 1.387 1.893M382.268 355.431a3.104 3.104 0 0 0-1.443-.35c-1.66 0-3.007 1.283-3.007 2.855 0 1.583 1.348 2.874 3.007 2.874.498 0 .999-.127 1.458-.36l.139-.076.56.596-.236.135a3.985 3.985 0 0 1-1.921.485c-2.094 0-3.804-1.639-3.804-3.654 0-2.006 1.71-3.635 3.804-3.635.68 0 1.347.17 1.927.494l.258.144-.607.562zM397.701 358.341h-3.865v3.173h-.799v-7.14h.8v3.222h3.864v-3.222h.797v7.14h-.797z"/></svg>